<?xml version="1.0" encoding="UTF-8" standalone="no"?>
<svg xmlns:xlink="http://www.w3.org/1999/xlink" height="600.0px" width="600.0px" xmlns="http://www.w3.org/2000/svg">
  <g transform="matrix(15.0, 0.0, 0.0, 15.0, 0.0, 0.0)">
    <path d="M7.4 5.2 L7.0 5.1 6.65 4.85 6.5 4.55 6.45 4.25 6.45 4.1 6.6 4.05 6.75 4.05 6.85 4.2 7.2 4.65 Q7.55 4.85 7.9 4.65 L8.3 4.1 8.35 3.95 8.45 3.9 8.6 3.9 8.65 3.9 8.65 4.05 8.5 4.7 8.05 5.1 7.75 5.2 7.55 5.25 7.4 5.2 M6.8 11.55 Q7.65 11.45 8.4 11.05 L9.8 10.15 10.8 8.85 11.45 7.25 11.55 6.65 11.55 6.0 11.55 5.3 11.4 4.6 10.75 3.1 9.7 1.85 Q9.1 1.3 8.35 0.95 7.6 0.6 6.8 0.5 5.95 0.35 5.1 0.5 L3.55 0.95 2.2 1.9 1.15 3.2 0.95 3.55 Q0.45 4.55 0.4 5.65 0.3 6.75 0.65 7.75 1.0 8.8 1.65 9.6 L3.35 11.0 4.45 11.4 5.6 11.6 6.2 11.6 6.8 11.55 M5.4 12.0 L3.45 11.45 Q2.55 11.0 1.85 10.3 0.95 9.45 0.5 8.35 0.0 7.3 0.0 6.1 0.0 4.95 0.4 3.85 0.85 2.7 1.7 1.85 2.7 0.8 4.05 0.35 L6.85 0.05 8.65 0.6 10.15 1.65 11.25 3.15 11.9 4.9 Q12.15 6.1 11.85 7.35 L10.9 9.45 9.2 11.1 Q8.15 11.75 6.9 11.95 L6.15 12.0 5.4 12.0 M9.8 6.75 L9.35 6.55 9.05 6.2 8.95 5.9 8.9 5.65 8.9 5.6 8.95 5.55 9.15 5.55 9.25 5.55 9.3 5.6 9.35 5.8 9.45 6.0 9.65 6.15 9.95 6.3 10.5 6.1 10.75 5.5 10.8 5.45 10.95 5.4 11.1 5.4 11.15 5.45 11.15 5.6 11.1 5.85 10.8 6.45 10.25 6.75 10.05 6.75 9.8 6.75 M7.6 8.7 L7.05 8.35 6.85 7.75 6.85 7.65 6.95 7.6 7.15 7.6 7.2 7.6 7.25 7.65 7.3 7.9 7.45 8.15 7.7 8.25 7.95 8.3 8.25 8.25 8.45 8.1 8.65 7.9 8.7 7.65 8.75 7.5 8.9 7.45 9.05 7.45 9.1 7.6 8.9 8.25 8.4 8.7 8.0 8.8 7.6 8.7 M3.05 9.45 L2.7 9.4 2.4 9.25 2.25 9.15 2.05 9.05 1.4 8.35 Q1.15 7.95 1.05 7.3 L1.05 7.1 1.1 7.0 1.5 6.9 1.9 6.9 2.0 7.25 1.95 7.45 1.85 7.5 1.8 7.55 1.8 7.6 1.9 7.8 2.3 8.4 2.95 8.75 3.45 8.8 3.95 8.75 4.7 8.25 5.1 7.5 5.2 7.15 5.2 6.3 5.15 5.45 5.1 5.3 5.15 5.3 5.5 5.3 5.65 5.25 5.65 5.45 5.75 6.35 5.8 7.15 5.7 7.75 Q5.5 8.55 4.9 9.0 4.25 9.5 3.4 9.5 L3.05 9.45" fill="#5da921" fill-rule="evenodd" stroke="none"/>
    <path d="M7.75 4.7 L8.0 4.55 8.15 4.3 8.15 3.8 7.85 3.45 7.45 3.35 Q7.25 3.4 7.1 3.55 L6.9 3.85 6.9 4.3 7.25 4.65 7.75 4.7 M7.7 5.2 L8.4 4.8 8.65 4.05 8.65 3.9 8.6 3.9 8.45 3.9 8.3 3.95 8.3 4.1 7.9 4.7 7.2 4.7 6.85 4.2 6.75 4.05 6.6 4.05 6.45 4.1 6.4 4.25 6.5 4.55 6.65 4.85 7.0 5.1 7.55 5.25 7.7 5.2 M7.25 5.25 L6.55 4.8 Q6.3 4.4 6.35 3.95 L6.55 3.35 7.05 3.0 7.65 2.85 8.25 3.1 8.75 3.9 Q8.8 4.35 8.45 4.8 L7.95 5.2 7.25 5.25 M10.25 6.2 L10.65 5.8 10.6 5.25 Q10.45 4.9 10.0 4.9 L9.75 4.95 9.5 5.15 9.35 5.6 9.55 6.05 9.9 6.2 10.25 6.2 M9.7 6.75 L9.25 6.5 8.95 6.15 Q8.75 5.75 8.85 5.4 L9.15 4.75 9.65 4.45 10.15 4.4 10.65 4.55 11.05 4.95 11.2 5.45 11.15 6.0 10.85 6.45 10.4 6.75 10.05 6.8 9.7 6.75 M10.25 6.75 L10.8 6.45 11.1 5.85 11.15 5.6 11.15 5.45 11.05 5.45 10.95 5.4 10.8 5.45 10.75 5.55 10.6 6.0 10.25 6.25 9.95 6.3 9.65 6.2 9.45 6.0 9.35 5.8 9.25 5.6 9.25 5.55 9.15 5.55 8.95 5.6 8.9 5.6 8.9 5.65 Q8.9 5.95 9.05 6.25 L9.5 6.65 9.9 6.75 10.25 6.75 M7.7 8.8 L7.2 8.6 6.9 8.2 Q6.65 7.75 6.8 7.25 6.95 6.8 7.45 6.55 L7.65 6.45 7.95 6.45 8.25 6.45 8.45 6.55 8.8 6.8 9.05 7.1 9.15 7.8 8.8 8.45 8.3 8.8 7.7 8.8 M8.3 8.2 L8.6 7.8 8.55 7.3 8.3 7.0 7.95 6.9 Q7.75 6.9 7.55 7.05 L7.3 7.4 7.3 7.8 7.55 8.15 7.95 8.3 8.3 8.2 M8.4 8.7 L8.9 8.25 9.1 7.65 9.05 7.45 8.9 7.45 8.7 7.5 8.7 7.65 8.6 7.9 8.45 8.1 8.25 8.25 7.95 8.3 7.7 8.25 7.45 8.15 7.3 7.9 7.25 7.65 7.2 7.6 7.15 7.6 6.95 7.6 6.85 7.65 6.85 7.8 7.05 8.35 Q7.25 8.6 7.6 8.75 L8.0 8.8 8.4 8.7 M5.2 7.2 L5.15 6.0 4.9 4.45 4.55 3.7 4.05 3.15 3.65 2.65 3.8 2.45 4.55 2.35 5.25 2.3 5.45 2.3 5.45 2.45 5.5 2.65 5.5 3.05 5.5 3.65 5.75 6.1 5.75 6.35 5.8 7.15 5.7 7.75 5.45 8.25 5.25 8.6 4.35 9.2 3.65 9.4 3.0 9.4 2.75 9.4 2.4 9.2 2.0 8.9 1.8 8.75 1.45 8.3 1.2 7.3 1.3 7.35 1.35 7.15 1.4 7.15 1.35 7.15 1.45 7.15 1.55 7.0 1.65 7.05 1.65 7.1 1.45 7.15 1.6 7.35 1.65 7.4 1.75 7.4 1.8 7.4 1.8 7.3 1.8 7.4 1.75 7.45 1.6 7.45 1.6 7.55 1.65 7.75 Q1.8 8.1 2.25 8.45 L2.45 8.6 2.55 8.6 2.95 8.75 3.45 8.8 3.95 8.75 Q4.4 8.6 4.7 8.3 L5.1 7.5 5.2 7.2 5.15 7.5 4.85 8.3 4.2 8.75 3.65 8.85 3.1 8.9 2.45 8.6 2.2 8.5 1.65 8.0 1.6 7.65 1.6 7.55 1.6 7.45 1.6 7.4 1.6 7.45 1.65 7.4 1.3 7.35 1.3 7.45 Q1.25 7.7 1.35 7.95 L1.8 8.75 2.1 9.0 2.4 9.2 3.0 9.4 3.35 9.35 3.7 9.25 Q3.95 9.1 4.05 9.1 L4.4 9.05 4.65 8.9 5.35 8.4 5.45 8.25 5.75 7.55 5.8 7.25 5.75 6.7 5.75 6.1 5.6 5.55 5.6 5.5 5.4 5.5 5.35 5.5 5.3 6.2 5.2 7.1 5.2 7.2 M5.55 5.4 L5.6 5.45 5.55 5.4" fill="url(#gradient0)" fill-rule="evenodd" stroke="none"/>
    <path d="M5.2 0.4 Q4.35 0.55 3.6 0.95 L2.2 1.85 1.2 3.15 0.55 4.75 0.45 5.35 0.45 6.0 0.45 6.7 0.6 7.4 1.25 8.9 2.3 10.15 3.65 11.05 5.2 11.5 6.9 11.5 8.45 11.0 9.8 10.1 10.85 8.8 11.05 8.4 11.6 6.3 Q11.7 5.25 11.35 4.25 L10.35 2.4 Q9.65 1.55 8.65 1.0 L7.55 0.6 6.4 0.35 5.8 0.4 5.2 0.4 M6.6 0.0 L8.55 0.55 Q9.45 0.95 10.15 1.7 11.05 2.55 11.5 3.65 12.0 4.7 12.0 5.9 12.0 7.05 11.6 8.15 11.15 9.3 10.3 10.15 9.3 11.2 7.95 11.65 L5.15 11.95 3.35 11.35 1.85 10.3 Q1.15 9.7 0.75 8.85 L0.1 7.1 Q-0.15 5.85 0.15 4.65 0.4 3.5 1.1 2.5 1.8 1.55 2.8 0.9 3.85 0.25 5.1 0.05 L5.85 0.0 6.6 0.0" fill="#5da921" fill-rule="evenodd" stroke="none"/>
    <path d="M7.25 5.25 L6.65 4.85 6.5 4.55 6.4 4.25 6.4 4.1 6.6 4.05 6.8 4.05 6.85 4.1 6.85 4.2 7.0 4.45 7.25 4.65 Q7.6 4.85 7.9 4.65 L8.25 4.1 8.3 3.95 8.35 3.9 8.5 3.9 8.65 3.9 8.7 3.9 8.7 4.05 8.5 4.7 8.05 5.15 7.8 5.2 7.55 5.25 7.5 5.25 7.45 5.25 7.25 5.25" fill="#5da921" fill-rule="evenodd" stroke="none"/>
    <path d="M7.75 4.7 L8.0 4.55 8.15 4.3 8.15 3.8 7.85 3.45 7.45 3.35 Q7.25 3.4 7.1 3.55 L6.9 3.85 6.9 4.3 7.25 4.65 7.75 4.7 M7.7 5.2 L8.4 4.8 8.65 4.05 8.65 3.9 8.6 3.9 8.45 3.9 8.3 3.95 8.3 4.1 7.9 4.7 7.2 4.7 6.85 4.2 6.75 4.05 6.6 4.05 6.45 4.1 6.4 4.25 6.5 4.55 6.65 4.85 7.0 5.1 7.55 5.25 7.7 5.2 M7.25 5.25 L6.55 4.8 Q6.3 4.4 6.35 3.95 L6.55 3.35 7.05 3.0 7.65 2.85 8.25 3.1 8.75 3.9 Q8.8 4.35 8.45 4.8 L7.95 5.2 7.25 5.25" fill="url(#gradient1)" fill-rule="evenodd" stroke="none"/>
    <path d="M9.75 6.75 L9.15 6.35 8.95 6.1 8.9 5.75 8.9 5.6 9.1 5.55 9.3 5.55 9.35 5.6 9.35 5.7 9.5 6.0 9.7 6.15 10.4 6.2 10.75 5.6 10.75 5.45 10.85 5.4 11.0 5.4 11.1 5.4 11.2 5.4 11.2 5.55 11.0 6.2 10.55 6.65 10.25 6.75 10.0 6.75 9.95 6.75 9.75 6.75" fill="#5da921" fill-rule="evenodd" stroke="none"/>
    <path d="M10.25 6.2 L10.5 6.05 10.65 5.8 10.65 5.3 10.35 4.95 9.95 4.9 Q9.75 4.9 9.6 5.05 L9.4 5.4 9.4 5.8 9.75 6.15 10.25 6.2 M9.75 6.75 L9.05 6.3 Q8.8 5.95 8.85 5.5 L9.05 4.9 Q9.25 4.65 9.55 4.5 L10.15 4.4 10.75 4.6 Q11.15 4.95 11.2 5.4 L10.95 6.3 10.45 6.7 9.75 6.75 M10.2 6.75 L10.9 6.35 11.15 5.55 11.15 5.4 11.1 5.4 10.9 5.4 10.8 5.45 10.75 5.6 10.4 6.2 9.7 6.2 9.3 5.7 9.25 5.55 9.1 5.55 8.9 5.6 8.9 5.75 9.0 6.1 9.15 6.35 9.5 6.6 10.0 6.75 10.2 6.75" fill="url(#gradient2)" fill-rule="evenodd" stroke="none"/>
    <path d="M7.7 8.8 Q7.3 8.7 7.05 8.4 L6.9 8.1 6.8 7.8 6.8 7.65 7.0 7.6 7.25 7.6 7.25 7.65 7.3 7.75 7.4 8.05 7.65 8.2 Q8.0 8.4 8.3 8.2 L8.65 7.65 8.7 7.5 8.8 7.45 8.9 7.45 9.05 7.45 9.1 7.45 9.1 7.6 8.95 8.25 8.45 8.7 8.2 8.75 7.95 8.8 7.9 8.8 7.85 8.8 7.7 8.8" fill="#5da921" fill-rule="evenodd" stroke="none"/>
    <path d="M8.15 8.25 L8.4 8.1 8.6 7.85 8.6 7.35 8.25 7.0 7.85 6.9 Q7.65 6.95 7.5 7.1 L7.3 7.4 7.3 7.85 7.65 8.2 8.15 8.25 M8.15 8.75 L8.8 8.4 9.1 7.6 9.05 7.45 9.0 7.45 8.85 7.45 8.75 7.5 8.7 7.65 8.3 8.25 7.6 8.25 7.25 7.75 7.15 7.6 7.0 7.6 6.85 7.65 6.85 7.8 6.9 8.1 7.05 8.4 7.45 8.65 7.95 8.8 8.15 8.75 M7.7 8.8 L7.0 8.35 Q6.7 8.0 6.75 7.5 L6.95 6.9 Q7.15 6.65 7.45 6.55 L8.05 6.4 8.65 6.65 9.15 7.45 8.9 8.35 8.35 8.75 7.7 8.8" fill="url(#gradient3)" fill-rule="evenodd" stroke="none"/>
  </g>
  <defs>
    <linearGradient gradientTransform="matrix(0.0, 0.0015, -0.0015, 0.0, 6.1, 3.9)" gradientUnits="userSpaceOnUse" id="gradient0" spreadMethod="pad" x1="-819.2" x2="819.2">
      <stop offset="0.0" stop-color="#5da921"/>
      <stop offset="1.0" stop-color="#96c461"/>
    </linearGradient>
    <linearGradient gradientTransform="matrix(0.0, -7.0E-4, 7.0E-4, 0.0, 7.5, 3.4)" gradientUnits="userSpaceOnUse" id="gradient1" spreadMethod="pad" x1="-819.2" x2="819.2">
      <stop offset="0.0" stop-color="#96c461"/>
      <stop offset="1.0" stop-color="#5da921"/>
    </linearGradient>
    <linearGradient gradientTransform="matrix(0.0, -7.0E-4, 7.0E-4, 0.0, 10.0, 4.9)" gradientUnits="userSpaceOnUse" id="gradient2" spreadMethod="pad" x1="-819.2" x2="819.2">
      <stop offset="0.0" stop-color="#96c461"/>
      <stop offset="1.0" stop-color="#5da921"/>
    </linearGradient>
    <linearGradient gradientTransform="matrix(0.0, -7.0E-4, 7.0E-4, 0.0, 7.9, 6.95)" gradientUnits="userSpaceOnUse" id="gradient3" spreadMethod="pad" x1="-819.2" x2="819.2">
      <stop offset="0.0" stop-color="#96c461"/>
      <stop offset="1.0" stop-color="#5da921"/>
    </linearGradient>
  </defs>
</svg>
