<?xml version="1.0" encoding="UTF-8" standalone="no"?>
<svg xmlns:xlink="http://www.w3.org/1999/xlink" height="111.8px" width="105.85px" xmlns="http://www.w3.org/2000/svg">
  <g transform="matrix(1.0, 0.0, 0.0, 1.0, -20.65, -46.9)">
    <path d="M49.95 123.8 L51.45 119.45 Q72.8 132.2 88.75 112.25 96.7 102.3 100.55 90.35 110.55 125.65 73.35 132.5 59.2 135.25 49.95 123.8 M53.05 90.8 Q57.05 87.85 62.05 89.25 L64.1 91.3 Q64.0 106.65 50.6 100.8 L50.45 100.1 Q49.75 94.75 53.05 90.8 M107.7 58.9 Q124.8 73.65 126.4 96.2 127.65 118.8 114.25 136.45 100.3 154.9 77.55 158.2 55.05 161.15 38.5 146.15 22.25 131.4 20.8 109.25 19.4 87.6 31.95 70.05 44.95 51.85 67.1 47.8 90.0 43.65 107.7 58.9 M84.95 89.4 L84.15 89.15 Q76.85 84.55 78.1 76.1 L78.5 75.7 Q86.25 69.05 93.6 75.6 L90.75 85.2 84.95 89.4 M94.6 58.25 L91.45 57.55 Q66.85 52.95 45.55 66.5 L68.1 62.5 69.1 64.3 Q47.1 69.9 35.8 89.7 24.7 109.25 35.6 129.3 46.85 150.05 71.0 150.1 93.55 150.1 107.15 131.85 120.45 113.9 116.85 91.65 113.35 69.95 94.6 58.25" fill="#000000" fill-rule="evenodd" stroke="none"/>
  </g>
</svg>
