<?xml version="1.0" encoding="UTF-8" standalone="no"?>
<svg xmlns:xlink="http://www.w3.org/1999/xlink" height="80.1px" width="128.5px" xmlns="http://www.w3.org/2000/svg">
  <g transform="matrix(1.0, 0.0, 0.0, 1.0, -18.1, -54.2)">
    <path d="M74.95 80.35 Q74.95 78.8 73.9 77.75 72.8 76.65 71.3 76.65 69.8 76.65 68.75 77.75 67.65 78.8 67.65 80.35 67.65 81.9 68.75 83.0 69.8 84.05 71.3 84.05 72.8 84.05 73.9 83.0 74.95 81.9 74.95 80.35 M136.75 92.1 Q138.55 91.0 140.25 87.65 141.65 84.9 142.0 82.95 144.5 86.75 146.6 93.95 L145.6 97.05 Q144.6 99.7 144.6 101.45 L144.55 102.8 143.8 104.3 143.6 102.75 Q143.85 100.95 140.55 96.6 138.0 93.15 136.75 92.1 M126.35 75.4 Q117.75 87.15 117.5 90.95 117.25 95.25 126.6 95.25 L133.5 94.0 Q136.9 94.0 139.4 100.2 140.65 103.35 141.25 106.55 141.25 111.95 136.55 116.4 132.35 120.4 128.65 120.4 126.45 120.4 124.45 118.95 120.85 116.35 112.15 113.3 113.0 112.25 113.6 110.25 L114.1 107.3 Q114.1 106.65 113.65 106.5 L112.45 106.45 111.6 106.55 111.5 106.6 Q105.65 112.4 100.6 118.05 L102.15 118.25 105.8 117.5 Q108.55 116.75 109.55 116.1 110.1 116.95 113.75 119.85 L118.0 123.0 Q120.5 124.45 121.3 124.35 L123.2 131.0 110.7 134.3 Q102.15 134.3 97.65 132.45 92.45 130.3 88.35 129.95 81.4 129.35 77.4 127.8 73.9 126.45 72.15 126.45 63.4 126.45 57.2 124.95 48.3 122.8 47.0 117.85 48.7 117.3 50.0 116.5 51.3 115.75 53.0 114.25 L52.8 114.05 Q47.7 115.55 41.6 114.1 36.4 112.85 34.65 110.95 37.85 110.4 42.1 106.95 45.45 104.2 47.05 101.85 L44.1 100.4 Q42.35 100.4 40.0 101.6 L35.3 104.2 Q28.15 107.95 20.0 107.95 L18.7 107.65 Q18.1 107.3 18.1 106.7 18.1 105.15 22.3 99.7 26.95 93.8 32.65 88.6 L32.45 88.35 31.85 87.75 30.8 87.45 Q29.85 87.45 28.6 87.95 L28.35 86.95 29.3 86.75 Q33.3 86.45 36.9 79.9 40.55 71.95 42.6 68.95 47.75 61.5 55.5 57.4 61.5 54.2 65.7 54.2 71.55 54.2 76.2 58.25 78.9 60.6 83.5 67.15 88.0 73.55 90.95 76.0 95.75 80.05 101.9 80.05 105.25 80.05 114.45 77.85 124.15 75.55 126.35 75.4 M82.75 76.1 Q82.75 74.4 81.6 73.25 80.4 72.05 78.75 72.05 77.1 72.05 75.95 73.25 74.75 74.4 74.75 76.1 74.75 77.8 75.95 79.0 77.1 80.15 78.75 80.15 80.4 80.15 81.6 79.0 82.75 77.8 82.75 76.1 M90.15 68.5 L83.75 60.5 99.6 55.15 Q100.15 56.0 100.15 57.0 L100.0 57.75 99.45 58.25 90.15 68.5" fill="#663300" fill-rule="nonzero" stroke="none"/>
  </g>
</svg>
